<svg width="216" height="172" viewBox="0 0 216 172" fill="none" xmlns="http://www.w3.org/2000/svg">
<g clip-path="url(#clip0_223_208)">
<path d="M26.9561 69.4271C26.9561 69.4271 25.7852 75.6045 28.552 87.3881C30.0503 93.7678 28.9489 95.8815 29.8027 95.5372C38.169 92.1575 46.9711 81.8954 46.9711 81.8954C46.9711 81.8954 58.9051 91.4988 53.6235 99.4786C48.3418 107.458 31.6271 110.24 28.5527 112.317C25.4783 114.394 12.545 110.33 12.642 100.384C12.7837 85.8983 13.6234 77.1337 13.3752 71.5034C13.044 63.9839 11.6612 62.0534 12.642 59.5473C14.3566 55.1647 24.3431 50.0904 28.0122 49.0703C31.6807 48.0503 39.2187 55.5635 37.2138 59.5473C35.2088 63.5312 26.9561 69.4265 26.9561 69.4265V69.4271Z" fill="#F28654"/>
<path d="M73.2823 70.174C73.2823 70.174 65.5478 66.644 55.2812 74.4761C45.8876 81.6418 45.8569 83.1329 45.8569 83.1329C45.8569 83.1329 50.8253 89.6768 52.5182 92.5157C54.2117 95.354 71.5007 72.0854 73.2823 70.174Z" fill="#11214B"/>
<path d="M29.8032 49.3886C29.9538 49.5085 35.3095 53.8708 35.61 55.464C35.9106 57.0578 33.2037 58.5514 33.2037 58.5514C33.2037 58.5514 29.5148 53.3719 28.5525 52.8742C27.5896 52.3759 32.101 57.7545 32.4016 58.5514C32.7021 59.3483 29.8951 60.5434 29.3942 60.842C28.8926 61.1406 24.482 56.2469 23.5797 56.3034C22.6774 56.3598 28.7133 60.842 28.5525 61.2407C28.3917 61.6389 26.0862 62.9975 25.2841 63.1648C24.482 63.3322 20.2717 58.8507 20.2717 58.8507C20.2717 58.8507 22.8784 62.4091 23.8809 63.1699C24.8834 63.9307 23.179 64.4283 22.1765 65.0262C21.174 65.624 19.3694 65.3552 18.0664 63.8463C16.7634 62.3375 16.6632 62.6469 16.6632 63.8463C16.6632 64.7244 17.2649 67.6159 20.072 68.1142C22.8791 68.6125 24.884 69.708 22.0769 71.1021C19.2699 72.4962 25.1845 86.4404 25.1845 90.624C25.1845 94.8076 14.6251 87.437 14.6251 87.437C14.6251 87.437 15.3149 71.5047 12.8256 60.965C12.5761 59.91 14.4585 55.9636 19.7714 53.1747C25.085 50.3859 28.3585 48.2374 29.8045 49.3899L29.8032 49.3886Z" fill="#FAA88A"/>
<path d="M36.9471 63.7195C36.9471 63.7195 37.4818 59.0713 32.5358 61.7276C27.5898 64.3833 28.4072 66.5084 29.8034 66.9072C31.1996 67.3059 37.1462 65.3945 36.9471 63.7202V63.7195Z" fill="#F28654"/>
<path d="M36.3355 62.8719C36.3355 62.8719 36.7088 59.6247 33.254 61.4803C29.7986 63.336 30.3698 64.8201 31.3448 65.0984C32.3198 65.3767 36.4746 64.0416 36.3355 62.8719Z" fill="#FAA88A"/>
<path d="M69.6034 69.1019C69.6034 69.1019 54.9722 69.0398 49.8724 91.5927C46.0635 108.436 56.0761 130.021 51.1429 149.328C45.389 171.848 47.9542 175.832 47.9542 175.832C47.9542 175.832 61.7687 199.492 90.5673 196.435C120.772 193.228 104.573 165.143 105.518 139.752C106.463 114.36 121.389 91.5927 90.3963 73.9829C73.0894 64.1487 69.6034 69.1019 69.6034 69.1019Z" fill="#172C64"/>
<path d="M19.0677 94.1253C19.0677 94.1253 25.6696 98.449 30.5843 101.301C35.499 104.153 31.5179 109.251 35.2917 114.383C39.0654 119.515 40.692 117.655 42.919 111.097C45.0152 104.923 46.7304 98.7559 46.2359 95.0884C45.3821 88.7512 23.8478 78.7046 20.8391 78.6653C15.8784 78.6007 2.36508 89.0219 0.398421 96.2168C-1.5676 103.412 19.0677 94.1247 19.0677 94.1247V94.1253Z" fill="#0C1632"/>
<path d="M19.1546 90.9035C19.1546 90.9035 28.2323 95.4846 32.241 97.8106C36.2489 100.137 32.9805 103.817 36.0582 108.002C39.1358 112.188 41.8363 110.297 43.6523 104.949C45.3618 99.9135 46.0574 96.7919 45.1563 93.9098C44.2553 91.0278 24.308 78.8606 20.0307 78.9152C17.5765 78.9469 3.5438 87.1327 1.94022 93.0007C0.336646 98.8687 19.1546 90.9035 19.1546 90.9035Z" fill="#0C2159"/>
<path d="M29.1197 88.9014C29.3163 88.0736 28.8003 87.2442 27.9672 87.0489C27.1341 86.8535 26.2993 87.3662 26.1026 88.1939C25.906 89.0216 26.422 89.851 27.2551 90.0464C28.0882 90.2417 28.923 89.7291 29.1197 88.9014Z" fill="#1741B1"/>
<path d="M38.7982 96.9371C39.2832 96.4553 39.2832 95.6742 38.7982 95.1924C38.3133 94.7106 37.5271 94.7106 37.0421 95.1924C36.5572 95.6742 36.5572 96.4553 37.0421 96.9371C37.5271 97.4189 38.3133 97.4189 38.7982 96.9371Z" fill="#1741B1"/>
<path d="M39.7487 100.42C40.2336 99.9377 40.2336 99.1566 39.7487 98.6748C39.2637 98.193 38.4775 98.193 37.9926 98.6748C37.5076 99.1566 37.5076 99.9377 37.9926 100.42C38.4775 100.901 39.2637 100.901 39.7487 100.42Z" fill="#1741B1"/>
<path d="M42.5019 96.0161C42.9868 95.5343 42.9868 94.7532 42.5019 94.2714C42.0169 93.7896 41.2307 93.7896 40.7457 94.2714C40.2608 94.7532 40.2608 95.5343 40.7457 96.0161C41.2307 96.4979 42.0169 96.4979 42.5019 96.0161Z" fill="#1741B1"/>
<path d="M43.519 99.4886C44.0039 99.0068 44.0039 98.2257 43.519 97.7439C43.034 97.2621 42.2478 97.2621 41.7628 97.7439C41.2779 98.2257 41.2779 99.0068 41.7628 99.4886C42.2478 99.9704 43.034 99.9704 43.519 99.4886Z" fill="#1741B1"/>
<path d="M33.1889 92.6458C33.7942 92.0444 33.7942 91.0694 33.1889 90.468C32.5836 89.8666 31.6022 89.8666 30.9969 90.468C30.3916 91.0694 30.3916 92.0444 30.9969 92.6458C31.6022 93.2471 32.5836 93.2471 33.1889 92.6458Z" fill="#1741B1"/>
<path d="M89.7672 88.6479C89.7672 88.6479 79.5472 102.07 75.5985 114.079C71.6493 126.088 78.1382 173.175 84.5544 185.127C90.9706 197.08 106.742 156.348 106.742 156.348L106.142 151.787C106.142 151.787 101.664 166.004 89.6338 176.097C86.874 178.412 77.3042 128.646 77.8389 118.775C78.3737 108.905 94.8095 88.4488 94.8095 88.4488C94.8095 88.4488 92.6476 72.3884 90.4499 75.2888C89.2331 76.8947 87.9696 79.1852 87.9696 79.1852L89.7678 88.6479H89.7672Z" fill="#1741B1"/>
<path d="M69.6651 75.2889C69.6651 75.2889 60.8949 79.9156 58.8899 81.3934C56.885 82.8712 53.8374 91.1217 53.6236 100.409C53.4098 109.697 57.8205 134.878 57.1523 142.274C56.4842 149.67 49.1804 158.07 49.1804 158.07C49.1804 158.07 49.9347 152.724 50.6028 151.396C51.2709 150.068 56.2169 140.924 54.3453 134.075C52.4737 127.226 50.8701 98.013 51.8056 90.4408C52.7411 82.868 57.3725 79.1859 57.3725 79.1859L70.4831 72.8995L69.6651 75.2895V75.2889Z" fill="#1741B1"/>
<path opacity="0.5" d="M52.5303 135.99C52.5303 135.99 75.866 156.708 84.1532 156.177C92.4403 155.646 103.147 124.461 103.147 124.461C103.147 124.461 99.1016 118.124 95.7056 118.831C92.3089 119.537 76.91 140.565 69.9718 137.481C63.0336 134.398 52.5303 127.492 52.5303 127.492C52.5303 127.492 52.5437 133.054 52.5303 135.99Z" fill="#0C1632"/>
<path d="M103.999 109.772C103.999 109.772 92.9909 143.22 84.8607 148.573C76.7305 153.925 55.3659 133.196 46.5217 124.166C43.2092 120.784 33.2202 120.502 33.2885 113.421C33.3064 111.532 33.9566 109.171 35.8282 107.013C36.3457 106.417 38.7354 105.121 34.8257 104.523C31.9721 104.087 31.8145 101.907 32.7576 101.64C44.4535 98.3419 47.8585 103.327 51.0663 106.44C54.5574 109.827 50.2642 115.19 57.7499 118.334C65.2356 121.478 77.2959 128.125 79.4342 124.46C81.5732 120.796 85.285 107.266 89.5629 101.644C93.8402 96.0235 103.464 102.271 103.999 109.771V109.772Z" fill="#F28654"/>
<path d="M80.0726 126.701C80.0726 126.701 80.2698 132.232 79.4683 130.523C79.4683 130.523 78.4697 128.029 76.7985 127.631C75.1273 127.233 56.1798 119.358 54.1749 116.373C52.1699 113.388 53.8462 107.844 50.269 104.85C43.8528 99.4792 38.64 100.069 35.0436 101.078C32.137 101.893 34.6263 103.229 36.1297 103.329C37.6337 103.428 41.3131 103.057 43.1177 105.116C43.9606 106.078 38.9782 105.44 37.6376 105.979C36.2969 106.519 34.2256 111.994 34.3258 112.891C34.4259 113.787 36.4309 114.883 39.6393 114.185C42.8471 113.488 48.5614 116.659 53.374 122.095C58.186 127.532 77.2337 142.074 80.943 142.273C84.6524 142.472 93.5387 125.876 94.7779 123.356C95.4639 121.962 84.1285 115.486 84.1285 115.486L80.0745 126.702L80.0726 126.701Z" fill="#FAA88A"/>
<path d="M83.927 113.185C83.927 113.185 89.3561 90.0781 99.673 88.5839C109.99 87.0896 111.761 108.343 103.148 124.46C103.148 124.46 89.4945 112.463 83.927 113.185Z" fill="#113184"/>
<path d="M94.5845 76.579C94.5845 76.579 78.2463 93.6747 69.9713 91.5927C61.6962 89.5107 66.1369 76.2449 69.1966 73.5157C72.2564 70.7864 86.8723 70.0035 94.5839 76.579H94.5845Z" fill="#1741B1"/>
<path d="M67.7358 80.9242L71.8223 68.9872L87.8127 58.3574C87.8127 58.3574 89.02 69.2116 90.3964 73.9829C91.7722 78.7542 65.8681 92.7465 67.7358 80.9242Z" fill="#F28654"/>
<path d="M66.318 43.5007C66.6066 37.1635 62.8349 31.8461 57.8937 31.6241C52.9526 31.402 48.7131 36.3593 48.4245 42.6965C48.136 49.0338 51.9077 54.3511 56.8488 54.5732C61.79 54.7952 66.0295 49.8379 66.318 43.5007Z" fill="#0071BC"/>
<path d="M68.8576 43.5008C69.1461 37.1635 65.3744 31.8462 60.4333 31.6241C55.4921 31.4021 51.2526 36.3594 50.9641 42.6966C50.6756 49.0338 54.4472 54.3512 59.3884 54.5732C64.3296 54.7953 68.5691 49.838 68.8576 43.5008Z" fill="#00395E"/>
<path d="M53.6144 21.4025C53.6144 21.4025 49.8726 24.9547 49.8726 32.0685C49.8726 39.1823 53.6144 43.1002 53.6144 43.1002C53.6144 43.1002 54.7133 29.8065 57.3723 27.4557C60.0313 25.1049 57.6224 19.5393 53.6144 21.4025Z" fill="#0C1632"/>
<path d="M86.7734 59.7807C86.7734 59.7807 85.0084 75.765 69.9719 74.3924L71.8224 68.9866L86.7734 59.78V59.7807Z" fill="#D35F3C"/>
<path d="M53.8104 38.2358C53.8104 38.2358 51.263 65.3266 64.9678 69.4455C78.6725 73.5638 92.6197 56.2209 92.6197 45.3014C92.6197 34.3819 95.0451 24.7468 86.5557 24.7468C78.0663 24.7468 51.5476 16.7036 53.8104 38.2358Z" fill="#F28654"/>
<path d="M81.6384 28.479C81.6384 28.479 84.3191 56.4936 70.9883 67.2337C63.4752 73.2868 53.2711 63.2866 53.6234 49.6974C53.9437 37.3305 52.5418 28.0733 58.0551 25.9482C63.569 23.8231 81.7067 25.4024 81.6384 28.479Z" fill="#FAA88A"/>
<path d="M47.2607 19.4062C47.2607 19.4062 50.1954 24.9687 55.9409 27.4551C64.5038 31.1607 74.4679 26.9638 77.1409 30.682C79.814 34.4002 76.5979 38.4735 79.195 42.167C81.7921 45.8612 79.0151 50.711 78.7139 51.8154C78.4133 52.9204 84.6266 51.1402 85.6954 45.4263C86.7649 39.7123 89.9727 36.5456 91.8443 41.7144C93.7159 46.8831 90.2056 54.3 90.2056 54.3C90.2056 54.3 98.0455 50.1265 101.357 37.3818C103.129 30.5597 103.14 24.9725 97.7258 21.4013C95.9397 20.2234 101.58 13.762 92.9406 10.7214C90.4188 9.83389 95.0974 14.3002 94.585 17.2108C94.585 17.2108 92.0976 14.6578 89.4386 12.8649C83.9528 9.16505 72.5899 10.9509 66.3773 9.49661C54.1823 6.64184 42.2426 13.0297 47.2607 19.4049V19.4062Z" fill="#0C1632"/>
<path d="M51.7442 46.7893C51.7442 46.7893 44.7932 53.3871 44.7932 57.1744C44.7932 60.9617 51.7442 67.4834 51.7442 67.4834C51.7442 67.4834 55.218 66.9014 53.6145 66.1222C52.0109 65.3437 45.4613 58.7035 46.9315 55.6491C48.4017 52.5946 52.679 47.8138 52.679 47.8138C52.679 47.8138 53.3471 46.2955 51.7435 46.7887L51.7442 46.7893Z" fill="#00395E"/>
<path d="M67.4001 9.87452C67.4001 9.87452 80.5019 13.9459 84.6489 21.5155C88.7967 29.0851 86.3157 38.7398 86.3157 38.7398C86.3157 38.7398 91.4933 38.8305 91.9336 37.0135C92.9023 33.0163 94.1989 22.3206 90.1157 17.37C84.8442 10.9802 79.105 9.17842 75.9323 9.03324C72.7597 8.88806 69.9175 8.58186 67.4001 9.87452Z" fill="#00395E"/>
<path d="M67.5808 9.78572C67.5808 9.78572 81.3481 13.4583 85.4958 21.0279C89.6435 28.5975 87.1625 38.2523 87.1625 38.2523C87.1625 38.2523 92.3402 38.3429 92.7805 36.526C93.7491 32.5288 95.0458 21.8331 90.9625 16.8824C85.6911 10.4926 79.9749 8.58181 76.8015 8.436C73.6282 8.29018 69.6547 8.13423 67.5808 9.78509V9.78572Z" fill="#0071BC"/>
<path d="M23.4711 101.164C23.4711 101.164 21.9971 98.8713 20.5843 96.8812C19.5493 95.4237 13.5759 98.3755 13.5759 98.3755C13.5759 98.3755 12.8026 101.363 15.7813 105.915C17.8175 109.026 24.2177 111.152 24.2177 111.152L23.4705 101.165L23.4711 101.164Z" fill="#FAA88A"/>
<path d="M21.1292 82.3177L19.9351 81.4965L16.6981 86.1426L17.8923 86.9638L21.1292 82.3177Z" fill="#1741B1"/>
<path d="M21.6683 85.1921L16.9971 81.9798L16.0249 83.3753L20.6961 86.5876L21.6683 85.1921Z" fill="#1741B1"/>
<path d="M53.6144 70.4897C53.6144 70.4897 49.676 67.8245 49.415 66.3043C49.154 64.784 50.9695 62.0307 52.8742 63.0222C54.779 64.0137 57.2855 66.1223 57.8866 66.9604C58.4883 67.7985 57.3614 72.0861 53.6138 70.4904L53.6144 70.4897Z" fill="#00395E"/>
<path d="M97.8992 46.2907C98.6719 40.3148 95.5207 34.9882 90.8609 34.3935C86.2011 33.7988 81.7972 38.1611 81.0245 44.1371C80.2519 50.1131 83.403 55.4397 88.0628 56.0344C92.7226 56.6291 97.1265 52.2667 97.8992 46.2907Z" fill="#00395E"/>
<path d="M100.102 46.5726C100.875 40.5966 97.7234 35.27 93.0636 34.6753C88.4038 34.0806 83.9999 38.443 83.2272 44.419C82.4545 50.395 85.6057 55.7215 90.2655 56.3162C94.9253 56.911 99.3292 52.5486 100.102 46.5726Z" fill="#0071BC"/>
<path d="M100.127 46.3746C100.698 41.9545 98.3678 38.0147 94.9216 37.5749C91.4754 37.135 88.2184 40.3618 87.6469 44.7819C87.0754 49.2021 89.4057 53.1419 92.8519 53.5817C96.2981 54.0215 99.5551 50.7948 100.127 46.3746Z" fill="#338DC9"/>
<path d="M59.025 53.117L69.6489 55.8152C69.6489 55.8152 68.1315 62.5315 63.7017 60.6277C58.422 58.358 59.025 53.1176 59.025 53.1176V53.117Z" fill="white"/>
<path d="M60.8845 45.5828C61.6108 45.5828 62.1996 44.5828 62.1996 43.3493C62.1996 42.1158 61.6108 41.1158 60.8845 41.1158C60.1582 41.1158 59.5693 42.1158 59.5693 43.3493C59.5693 44.5828 60.1582 45.5828 60.8845 45.5828Z" fill="#0C1632"/>
<path d="M70.1952 47.7549C71.0203 47.7549 71.6891 46.6192 71.6891 45.2183C71.6891 43.8175 71.0203 42.6818 70.1952 42.6818C69.3702 42.6818 68.7014 43.8175 68.7014 45.2183C68.7014 46.6192 69.3702 47.7549 70.1952 47.7549Z" fill="#0C1632"/>
<path d="M55.4798 38.7417C55.4798 38.7417 57.5192 37.1212 59.3378 37.4198C61.1565 37.7184 62.4844 38.781 62.6509 39.2679C62.8175 39.7548 62.4391 40.5073 61.4717 40.0204C60.5043 39.5335 59.5178 38.8298 58.0878 39.0022C56.6584 39.1747 55.2488 39.3655 55.4798 38.741V38.7417Z" fill="#0C1632"/>
<path d="M66.6426 39.7104C66.6426 39.7104 65.8431 41.1254 67.1774 41.1153C68.5117 41.1051 70.47 40.2252 71.6895 40.9498C72.6581 41.5254 73.6383 42.167 74.039 41.8348C74.4397 41.5026 73.2152 39.7884 71.856 39.3205C70.805 38.9591 66.6331 39.0536 66.6426 39.7098V39.7104Z" fill="#0C1632"/>
<path d="M64.9494 43.8718C64.9494 43.8718 63.3624 45.5607 61.7665 47.4798C61.3007 48.0395 61.644 49.7373 63.4014 51.0985C63.4014 51.0985 64.6093 51.4858 63.7019 49.5383C63.1404 48.3324 62.8992 47.4455 63.4345 47.0068C65.1721 45.5829 64.9494 43.8718 64.9494 43.8718Z" fill="#F28654"/>
<path d="M68.8352 25.9431C68.8352 25.9431 48.2944 24.3075 46.5568 17.0244C44.8192 9.74137 57.2484 12.9296 60.5123 14.2888C68.7012 17.699 74.8066 28.3332 68.8358 25.9431H68.8352Z" fill="#142344"/>
<path d="M71.2299 8.49623C71.2299 8.49623 77.1267 8.339 79.5228 8.89499C82.4147 9.5651 89.9387 13.3245 91.994 19.3523C94.5854 26.9505 91.8715 29.054 90.5685 28.4562C89.2655 27.8583 91.3706 23.276 86.9593 17.4003C82.245 11.1209 74.6476 9.25319 71.2292 8.49623H71.2299Z" fill="#338DC9"/>
<path d="M83.927 113.185C83.927 113.185 85.0686 108.1 85.7073 107.167C86.4386 106.099 95.2771 111.3 98.3892 114.71C101.501 118.119 105.087 120.336 105.087 120.336L103.148 126.024C103.148 126.024 87.9879 114.67 83.927 113.185Z" fill="#1741B1"/>
<path d="M50.1744 90.3292L44.4409 84.6184C44.4409 84.6184 46.7337 81.8118 47.1255 81.4067C47.5173 81.0016 50.8916 87.761 50.8916 87.761C50.8916 87.761 50.353 89.5982 50.1744 90.3298V90.3292Z" fill="#1741B1"/>
<path d="M47.5336 168.402C47.5336 168.402 61.3334 190.215 82.0816 192.387C102.829 194.559 108.645 182.179 108.645 182.179C108.645 182.179 108.752 196.186 88.9854 196.707C64.1686 197.361 52.6117 183.639 48.5176 176.713C48.5176 176.713 46.729 174.569 47.533 168.401L47.5336 168.402Z" fill="#1741B1"/>
<path d="M192.275 67.9871C192.275 67.9871 193.446 74.1645 190.679 85.9481C189.181 92.3277 190.282 94.4414 189.428 94.0971C181.062 90.7174 172.26 80.4554 172.26 80.4554C172.26 80.4554 164.104 92.0532 169.385 100.033C174.667 108.013 187.604 108.8 190.678 110.876C193.753 112.954 206.686 108.89 206.589 98.9438C206.258 65.1114 208.304 62.4899 206.589 58.1079C204.874 53.7253 195.771 47.7976 192.102 46.7776C188.433 45.7575 180.012 54.124 182.017 58.1079C184.022 62.0918 192.275 67.9871 192.275 67.9871Z" fill="#F28654"/>
<path d="M189.502 104.791C189.502 104.791 190.171 102.384 189.502 100.033C188.834 97.6829 192.847 97.7799 194.182 98.8602C195.517 99.9405 194.182 102.862 194.182 102.862L189.502 104.79V104.791Z" fill="#F28654"/>
<path d="M164.542 73.7974C164.542 73.7974 160.118 67.6568 160.869 64.066C161.62 60.4751 166.411 55.1175 166.528 31.4152C166.558 25.3107 171.258 19.3932 163.404 16.7388C155.551 14.0843 150.132 12.5761 144.219 12.5774C138.306 12.5787 134.292 15.0809 134.292 15.0809L153.145 20.8577C153.145 20.8577 161.868 35.3477 160.615 42.445C159.361 49.5423 142.318 56.4494 142.518 66.5416C142.719 76.6338 164.542 73.7974 164.542 73.7974Z" fill="#B22D0F"/>
<path d="M157.821 70.9578C157.821 70.9578 164.878 72.4502 175.234 81.4145C179.086 84.7486 175.234 94.778 175.234 94.778L157.821 70.9585V70.9578Z" fill="#4F002F"/>
<path d="M162.936 73.7974C162.936 73.7974 178.058 90.6991 178.058 100.089C178.058 109.48 173.332 121.686 170.497 131.076C167.662 140.466 171.19 155.318 175.234 169.389C181.234 190.263 140.027 199.281 126.883 193.681C104.164 184.003 117.685 168.772 121.466 140.975C125.246 113.179 105.425 110.876 114.472 90.7517C120.314 77.7553 140.159 58.1079 162.936 73.7974H162.936Z" fill="#770046"/>
<path d="M120.358 84.9676C120.358 84.9676 151.648 104.138 153.241 109.531C154.834 114.925 162.464 110.229 165.271 107.042C168.078 103.856 172.225 105.46 175.297 101.465C180.811 94.2933 164.971 74.6719 162.164 74.0957C157.795 73.198 161.261 93.5643 155.647 92.7338C150.033 91.9033 127.812 80.9071 124.206 80.7479C120.599 80.5894 120.359 84.9683 120.359 84.9683L120.358 84.9676Z" fill="#9E005D"/>
<path d="M121.804 84.0988C121.804 84.0988 122.008 82.9709 123.246 83.5941C129.601 86.7957 150.047 99.5765 155.417 118.197C161.834 140.444 139.563 184.003 139.563 184.003C139.563 184.003 117.507 161.029 121.43 142.593C121.43 142.593 129.766 169.226 136.675 172.316C143.584 175.406 158.791 135.516 152.292 120.981C145.793 106.447 135.542 92.9661 121.804 84.0981V84.0988Z" fill="#F8449D"/>
<path d="M130.395 57.9121C130.395 57.9121 133.28 70.135 126.719 75.3951C122.926 78.4362 150.532 87.114 154.214 85.0371C157.897 82.9602 158.008 74.0327 155.51 70.9579C153.013 67.8831 145.935 68.8664 146.462 58.1079C146.813 50.9257 130.396 57.9114 130.396 57.9114L130.395 57.9121Z" fill="#F28654"/>
<path d="M147.639 64.9174C147.639 64.9174 148.746 66.9728 150.718 67.9877C151.916 68.604 141.258 72.3514 137.646 61.726L147.639 64.9181V64.9174Z" fill="#D35F3C"/>
<path d="M123.708 77.4478C123.708 77.4478 146.774 87.2427 153.278 87.3238C157.21 87.3733 159.284 71.9532 157.821 70.9579C155.462 69.3514 152.23 68.7973 152.23 68.7973C152.23 68.7973 156.821 73.6453 153.279 83.6056C152.63 85.4289 129.486 77.4947 128.432 73.9616C127.789 71.8068 123.709 77.4478 123.709 77.4478H123.708Z" fill="#E14889"/>
<path d="M162.443 36.3443C162.443 36.3443 162.61 68.0283 149.737 66.1758C136.863 64.324 130.195 57.0067 130.195 57.0067C130.195 57.0067 121.774 31.1312 131.787 20.7594C141.801 10.387 163.522 23.3612 163.522 23.3612L162.444 36.3443H162.443Z" fill="#F28654"/>
<path d="M162.936 73.7974C162.936 73.7974 171.19 90.4683 171.761 103.997C172.183 113.99 164.673 138.187 166.528 150.139C168.383 162.091 173.88 164.015 173.88 164.015L171.19 155.318C171.19 155.318 167.581 137.788 170.789 124.641C173.997 111.493 177.418 104.378 171.19 88.1866C168.06 80.0528 162.936 73.7968 162.936 73.7968V73.7974Z" fill="#F8449D"/>
<path d="M115.535 88.6026C115.535 88.6026 112.322 85.4086 112.434 81.2149C112.56 76.5368 117.034 67.2993 112.434 61.7247C102.218 49.3427 103.208 34.8919 106.228 27.6298C112.9 11.5808 130.395 6.60671 153.224 14.4825C169.239 20.0076 164.494 27.2069 163.272 26.3657C158.199 22.87 154.336 25.0736 153.224 24.8188C133.296 20.2593 131.457 46.4251 136.103 55.9163C139.474 62.8031 144.23 77.4941 123.54 83.5054C121.595 84.0703 118.175 85.3535 115.536 88.6019L115.535 88.6026Z" fill="#B22D0F"/>
<path d="M127.392 54.9159C127.392 54.9159 113.445 36.196 119.861 23.4468C126.277 10.6977 138.775 7.03651 147.129 9.29028C152.295 10.6837 153.224 13.6951 153.224 13.6951C153.224 13.6951 123.708 17.9909 129.084 43.5665C129.084 43.5665 131.715 56.9034 127.392 54.9159Z" fill="#B2306F"/>
<path d="M154.825 24.6241C154.825 24.6241 156.571 19.8617 160.071 19.8617C163.57 19.8617 167.881 24.2443 166.528 29.2242C165.175 34.204 160.866 54.124 163.522 60.6976C166.178 67.2713 163.522 71.5208 163.522 71.5208C163.522 71.5208 167.588 67.6694 166.783 59.5026C165.977 51.3352 166.804 43.0111 169.586 33.8059C172.367 24.6006 173.796 19.2759 169.185 17.4716C164.573 15.6673 157.968 15.8601 154.427 18.2825C152.022 19.9283 154.825 24.6241 154.825 24.6241Z" fill="#F15A24"/>
<path d="M131.392 58.4936C135.728 54.1849 135.728 47.1992 131.392 42.8906C127.055 38.5819 120.023 38.5819 115.687 42.8906C111.35 47.1992 111.35 54.1849 115.687 58.4936C120.023 62.8022 127.055 62.8022 131.392 58.4936Z" fill="#771E48"/>
<path d="M153.145 20.8577C153.145 20.8577 147.146 17.4945 144.732 18.28C142.318 19.0648 135.094 21.595 131.688 27.8301C128.283 34.0652 137.092 45.7182 132.832 54.8645C125.074 71.5215 130.421 75.2397 134.292 79.0493C134.292 79.0493 131.161 67.6701 134.521 62.8893C137.882 58.1086 139.834 49.7065 137.506 38.1943C135.809 29.7999 141.671 23.6465 145.202 22.4515C148.734 21.2565 151.921 22.9371 152.814 24.73C153.706 26.5229 154.281 22.2524 153.145 20.8583V20.8577Z" fill="#F15A24"/>
<path d="M122.618 28.6264C122.618 28.6264 114.719 18.3079 114.257 12.5774C113.795 6.84695 128.654 12.4246 132.052 14.5497C135.45 16.6748 126.895 21.1899 122.618 28.6264Z" fill="#F8449D"/>
<path d="M139.191 11.1827C139.191 11.1827 146.299 0.299927 149.516 0.00766608C153.452 -0.349893 150.605 11.9193 150.605 11.9193C150.605 11.9193 146.223 8.67975 139.191 11.1833V11.1827Z" fill="#F8449D"/>
<path d="M125.475 38.1936C125.475 38.1936 125.081 29.6883 126.882 24.6418C128.683 19.5954 138.876 10.8441 152.021 11.9187C152.021 11.9187 148.801 8.68481 141.917 8.70573C140.874 8.7089 135.12 9.02145 129.986 12.2091C124.851 15.396 121.458 20.9363 119.862 26.5013C117.761 33.8255 119.862 39.0843 119.862 39.0843C119.862 39.0843 124.406 37.5355 125.476 38.1936H125.475Z" fill="#F8449D"/>
<path d="M123.069 23.8951C123.069 23.8951 116.353 16.7389 117.555 12.5775C118.137 10.5646 127.602 14.998 129.295 15.9857C130.989 16.9734 124.974 19.264 123.069 23.8958V23.8951Z" fill="#FF7EBD"/>
<path d="M144.189 9.45062C144.189 9.45062 147.882 2.79647 149.469 1.73393C151.056 0.671398 150.204 8.36907 149.803 9.93371C149.402 11.4977 148.667 8.66703 144.189 9.45062Z" fill="#FF7EBD"/>
<path d="M141.786 28.6264C141.786 28.6264 139.405 32.1716 140.446 43.753C141.786 58.6563 148.085 62.852 150.605 63.9513C155.248 65.9762 159.093 59.4374 160.964 51.256C162.836 43.0746 160.172 40.5787 160.869 37.2586C161.565 33.9385 163.12 26.3688 161.073 25.5719C159.026 24.775 143.527 26.9001 141.786 28.6264Z" fill="#FAA88A"/>
<path d="M176.899 94.778C176.899 94.778 179.574 87.5825 178.322 84.9965C177.071 82.4105 173.88 80.269 173.88 80.269C173.88 80.269 175.402 82.6172 175.234 85.0371C175.066 87.4569 174.375 89.5199 174.375 89.5199C174.375 89.5199 176.546 93.7897 176.898 94.778H176.899Z" fill="#F8449D"/>
<path opacity="0.51" d="M119.862 120.982C119.862 120.982 131.487 142.683 135.7 148.204C139.912 153.725 166.523 134.52 166.523 134.52C166.523 134.52 148.261 139.572 143.285 136.689C138.308 133.805 127.393 120.529 127.393 120.529L119.862 120.982Z" fill="#4F002F"/>
<path d="M189.428 47.9485C189.277 48.0683 183.921 52.4307 183.621 54.0238C183.32 55.6176 186.027 57.1113 186.027 57.1113C186.027 57.1113 189.716 51.9317 190.678 51.4341C191.641 50.9358 187.13 56.3144 186.829 57.1113C186.529 57.9082 189.336 59.1032 189.837 59.4018C190.337 59.7004 194.749 54.8068 195.651 54.8632C196.553 54.9196 190.517 59.4018 190.678 59.8006C190.839 60.1987 193.145 61.5573 193.947 61.7247C194.749 61.892 198.959 57.4099 198.959 57.4099C198.959 57.4099 196.352 60.9683 195.35 61.7291C194.347 62.4899 196.052 62.9875 197.054 63.5854C198.057 64.1832 199.861 63.9144 201.164 62.4055C202.467 60.8961 202.568 61.2061 202.568 62.4055C202.568 63.2836 201.966 66.1751 199.159 66.6734C196.352 67.1717 194.347 68.2672 197.154 69.6613C199.961 71.0555 194.046 84.9996 194.046 89.1832C194.046 93.3668 204.606 85.9962 204.606 85.9962C204.606 85.9962 205.525 62.3498 206.405 59.5242C206.728 58.4889 204.772 54.5228 199.459 51.7339C194.146 48.9451 190.872 46.7966 189.426 47.9491L189.428 47.9485Z" fill="#FAA88A"/>
<path d="M182.284 62.2794C182.284 62.2794 181.749 57.6312 186.695 60.2875C191.641 62.9432 190.824 65.0683 189.428 65.467C188.032 65.8652 182.085 63.9544 182.284 62.2801V62.2794Z" fill="#F28654"/>
<path d="M182.895 61.4318C182.895 61.4318 182.522 58.1846 185.977 60.0403C189.432 61.8959 188.861 63.38 187.886 63.6583C186.911 63.9367 182.756 62.6015 182.895 61.4318Z" fill="#FAA88A"/>
<path d="M179.176 87.3244C177.992 86.847 183.624 91.5669 189.427 94.0971C190.988 94.7774 188.433 98.805 184.323 98.1279C180.213 97.4508 178.656 93.0986 178.656 93.0986L179.176 87.3244Z" fill="#FAA88A"/>
<path opacity="0.33" d="M215.213 85.0371L189.428 62.4938C189.428 62.4938 156.885 78.7196 162.936 92.7475C164.292 95.8913 196.32 106.043 196.32 106.043L215.213 85.0371Z" fill="url(#paint0_linear_223_208)"/>
<path d="M189.492 108.358C189.492 108.358 192.633 95.6751 195.483 93.5006C201.133 89.1902 212.307 84.6599 213.999 83.7597C215.691 82.8594 212.482 97.2017 209.809 99.8581C207.136 102.514 188.663 113.197 189.492 108.357V108.358Z" fill="#29ABE2"/>
<path d="M190.705 108.737C190.705 108.737 193.846 96.0542 196.696 93.8797C202.346 89.5693 213.52 85.039 215.211 84.1387C216.904 83.2385 213.695 97.5808 211.022 100.237C208.349 102.893 189.876 113.576 190.705 108.736V108.737Z" fill="#7C224F"/>
<path d="M190.705 109.634C190.705 109.634 195.106 97.8319 197.957 95.6573C203.607 91.347 213.52 85.9373 215.213 85.0371C216.905 84.1368 213.697 98.4791 211.023 101.135C208.35 103.791 189.877 114.474 190.706 109.634H190.705Z" fill="#4F002F"/>
<path d="M115.841 107.514C115.841 107.514 128.683 132.317 135.099 141.692C141.516 151.068 188.032 122.767 191.775 120.981C195.517 119.196 201.933 111.759 201.933 111.759C201.933 111.759 195.517 105.692 199.794 105.538C204.072 105.384 204.606 101.135 204.606 101.135C204.606 101.135 203.537 97.9479 194.448 101.135C185.358 104.322 186.428 108.041 184.289 111.228C182.15 114.415 154.08 121.389 148.733 123.18C143.387 124.971 139.366 101.516 131.881 96.7357C124.395 91.9549 113.575 96.07 115.841 107.514Z" fill="#F28654"/>
<path d="M119.861 120.982C119.861 120.982 109.517 108.033 111.841 96.6204C114.165 85.2077 123.272 87.7138 129.753 93.4335C136.675 99.5424 143.285 115.87 143.285 115.87C143.285 115.87 133.066 120.451 119.862 120.983L119.861 120.982Z" fill="#9E005D"/>
<path d="M117.506 117.588C117.506 117.588 117.455 113.712 119.861 110.876C122.268 108.041 127.881 113.119 132.827 114.232C137.773 115.345 142.403 113.807 142.403 113.807L143.284 115.869C143.284 115.869 130.956 121.498 119.861 120.982L117.506 117.588Z" fill="#F8449D"/>
<path d="M132.832 125.039C132.832 125.039 138.838 134.796 141.382 136.195C148.867 140.312 188.333 118.665 189.335 117.968C190.338 117.271 196.252 114.122 195.852 112.061C195.451 110 191.842 108.008 193.947 106.713C196.052 105.419 198.057 103.924 199.761 103.327C201.466 102.729 201.967 101.07 201.967 101.07C201.967 101.07 201.967 98.7448 194.983 101.058C192.345 101.931 189.21 103.359 187.732 104.963C185.693 107.178 184.856 111.304 182.886 112.357C174.932 116.606 152.618 121.524 150.212 122.72C147.806 123.915 147.029 129.522 147.029 129.522C147.029 129.522 146.111 125.139 146.795 124.043C147.48 122.948 144.79 121.918 143.284 117.868C143.284 117.868 136.579 122.35 132.831 125.039H132.832Z" fill="#FAA88A"/>
<path d="M215.304 89.2048C215.304 89.2048 211.194 91.9734 209.485 93.098C208.305 93.8753 203.599 106.043 203.599 106.043L204.606 105.464C204.606 105.464 209.084 94.2627 209.686 93.8645C210.287 93.4664 215.049 90.4683 215.049 90.4683L215.304 89.2048Z" fill="#F8449D"/>
<path d="M212.746 96.796C213.089 95.9931 212.914 95.1512 212.355 94.9155C211.796 94.6799 211.065 95.1398 210.722 95.9427C210.379 96.7456 210.554 97.5875 211.113 97.8231C211.672 98.0587 212.404 97.5989 212.746 96.796Z" fill="#F8449D"/>
<path d="M122.6 61.7253C128.214 61.7253 132.766 56.7857 132.766 50.6923C132.766 44.599 128.214 39.6594 122.6 39.6594C116.986 39.6594 112.434 44.599 112.434 50.6923C112.434 56.7857 116.986 61.7253 122.6 61.7253Z" fill="#F8449D"/>
<path d="M120.242 59.303C124.505 59.303 127.96 55.2154 127.96 50.1731C127.96 45.1309 124.505 41.0433 120.242 41.0433C115.98 41.0433 112.524 45.1309 112.524 50.1731C112.524 55.2154 115.98 59.303 120.242 59.303Z" fill="#F969B1"/>
<path d="M155.923 42.3614C156.649 42.3614 157.238 41.3614 157.238 40.1279C157.238 38.8944 156.649 37.8944 155.923 37.8944C155.196 37.8944 154.607 38.8944 154.607 40.1279C154.607 41.3614 155.196 42.3614 155.923 42.3614Z" fill="#591708"/>
<path d="M146.612 44.5339C147.437 44.5339 148.105 43.3983 148.105 41.9974C148.105 40.5965 147.437 39.4609 146.612 39.4609C145.786 39.4609 145.118 40.5965 145.118 41.9974C145.118 43.3983 145.786 44.5339 146.612 44.5339Z" fill="#591708"/>
<path d="M161.327 35.5202C161.327 35.5202 159.288 33.8997 157.469 34.1983C155.651 34.4969 154.323 35.5595 154.156 36.0464C153.99 36.5333 154.368 37.2858 155.335 36.7989C156.303 36.312 157.289 35.6083 158.719 35.7807C160.149 35.9532 161.558 36.144 161.327 35.5195V35.5202Z" fill="#F15A24"/>
<path d="M150.164 36.4895C150.164 36.4895 150.964 37.9045 149.629 37.8944C148.295 37.8842 146.337 37.0043 145.117 37.7289C144.149 38.3045 143.169 38.9461 142.768 38.6146C142.367 38.2824 143.592 36.5681 144.951 36.1002C146.002 35.7389 150.174 35.8333 150.164 36.4895Z" fill="#F15A24"/>
<path d="M157.801 49.0928L147.558 51.694C147.558 51.694 149.021 58.17 153.292 56.3334C158.383 54.1449 157.801 49.0928 157.801 49.0928Z" fill="white"/>
<path d="M151.876 40.7935C151.876 40.7935 153.463 42.4824 155.059 44.4014C155.525 44.9612 155.181 46.659 153.424 48.0201C153.424 48.0201 152.216 48.4075 153.123 46.4599C153.685 45.2541 153.926 44.3672 153.391 43.9285C151.653 42.5046 151.876 40.7935 151.876 40.7935Z" fill="#F28654"/>
<path opacity="0.63" d="M129.593 13.2989C129.593 13.2989 131.448 13.8289 132.359 14.1509C133.554 14.5732 136.346 11.4065 141.32 10.8099C142.111 10.7148 141.198 9.81396 139.19 9.50268C135.474 8.92703 129.593 13.2989 129.593 13.2989Z" fill="#FF7EBD"/>
<path d="M146.612 39.4609C146.612 39.4609 144.849 39.4609 144.229 41.7457H145.42L146.612 39.4609Z" fill="#591708"/>
<path d="M155.922 37.8944C155.922 37.8944 154.412 38.0827 154.118 40.1279L155.248 39.6587L155.922 37.8937V37.8944Z" fill="#591708"/>
</g>
<defs>
<linearGradient id="paint0_linear_223_208" x1="168.751" y1="72.5441" x2="198.563" y2="93.7095" gradientUnits="userSpaceOnUse">
<stop stop-color="white"/>
<stop offset="0.09" stop-color="#E1F3FA"/>
<stop offset="0.26" stop-color="#A9DDF3"/>
<stop offset="0.44" stop-color="#7BCBED"/>
<stop offset="0.6" stop-color="#57BDE8"/>
<stop offset="0.75" stop-color="#3DB3E4"/>
<stop offset="0.89" stop-color="#2EADE2"/>
<stop offset="1" stop-color="#29ABE2"/>
</linearGradient>
<clipPath id="clip0_223_208">
<rect width="215.257" height="171.28" fill="white"/>
</clipPath>
</defs>
</svg>
